<svg width="84" height="84" viewBox="0 0 84 84" fill="none" xmlns="http://www.w3.org/2000/svg">
<mask id="path-1-outside-1" maskUnits="userSpaceOnUse" x="1.62598" y="1.62486" width="81" height="81" fill="black">
<rect fill="white" x="1.62598" y="1.62486" width="81" height="81"/>
<path d="M42 2.62501C34.2124 2.62521 26.5998 4.93465 20.1248 9.2613C13.6498 13.5879 8.60315 19.7375 5.62307 26.9323C2.64299 34.127 1.8633 42.0439 3.3826 49.6818C4.9019 57.3197 8.65196 64.3356 14.1586 69.8422C17.8067 73.535 22.1491 76.4699 26.9358 78.4782C31.7225 80.4865 36.859 81.5285 42.0499 81.5443C47.2408 81.56 52.3836 80.5492 57.1823 78.57C61.9811 76.5908 66.3412 73.6823 70.0117 70.0118C73.6823 66.3412 76.5908 61.9812 78.57 57.1824C80.5492 52.3836 81.56 47.2408 81.5442 42.0499C81.5285 36.859 80.4865 31.7225 78.4782 26.9358C76.4699 22.1491 73.5349 17.8068 69.8422 14.1586C66.1945 10.4907 61.8555 7.58265 57.0764 5.6029C52.2973 3.62316 47.1729 2.611 42 2.62501ZM5.24997 42C5.22799 33.9948 7.84047 26.2046 12.6845 19.8312L22.5282 20.4666C20.6797 22.8794 19.681 25.8356 19.6875 28.875C19.6875 29.2231 19.8257 29.5569 20.0719 29.8031C20.318 30.0492 20.6519 30.1875 21 30.1875C21.3481 30.1875 21.6819 30.0492 21.928 29.8031C22.1742 29.5569 22.3125 29.2231 22.3125 28.875C22.308 27.2687 22.651 25.6804 23.3181 24.2192C23.9851 22.7579 24.9604 21.4583 26.177 20.4094C26.2381 20.3661 26.2954 20.3177 26.3482 20.2647C27.4729 19.3355 28.7679 18.6345 30.1607 18.2008L39.4467 15.299L37.2646 19.6642C37.2623 19.6688 37.26 19.6732 37.2579 19.6778L32.9524 28.2888C32.8737 28.4431 32.8264 28.6115 32.8131 28.7842C32.7998 28.9569 32.8208 29.1306 32.8749 29.2951C32.9291 29.4596 33.0152 29.6119 33.1284 29.7429C33.2417 29.874 33.3797 29.9814 33.5347 30.0589C33.6896 30.1364 33.8583 30.1824 34.0311 30.1943C34.2039 30.2063 34.3774 30.1839 34.5415 30.1285C34.7057 30.0731 34.8572 29.9858 34.9874 29.8715C35.1176 29.7573 35.2239 29.6184 35.3001 29.4628L39.1751 21.7129C42.4739 22.4082 45.4863 24.0822 47.819 26.5161C50.1516 28.9499 51.6962 32.0307 52.2509 35.356C52.7803 38.5273 53.9542 41.5564 55.7001 44.2562C57.4461 46.9561 59.727 49.2694 62.402 51.0531L65.5356 53.143L64.4322 61.9707L53.4965 65.0121L51.6039 64.3808C50.5759 64.0351 49.642 63.4562 48.8751 62.6893C48.1083 61.9225 47.5294 60.9885 47.1837 59.9606C47.0725 59.6317 46.8355 59.3603 46.5247 59.2058C46.2138 59.0512 45.8544 59.0261 45.5251 59.136C45.1958 59.2458 44.9234 59.4816 44.7676 59.7918C44.6117 60.102 44.5851 60.4613 44.6936 60.7911C45.4702 63.1002 47.0897 65.0311 49.2284 66.1978L47.6475 66.6369C43.7972 67.7076 39.8194 68.2502 35.823 68.25H35.718C33.842 68.2498 31.9678 68.1338 30.1061 67.9025L22.4754 66.9477C22.2335 66.9178 21.9882 66.9556 21.7666 67.057C21.545 67.1584 21.3559 67.3194 21.2205 67.5219L19.0814 70.7306C18.0092 69.8728 16.985 68.9566 16.0135 67.9862C12.5903 64.5816 9.87636 60.5318 8.0288 56.0712C6.18125 51.6107 5.23675 46.828 5.24997 42ZM48.1773 23.2614C50.6746 20.955 53.9518 19.6783 57.3513 19.6875H59.6679L56.8376 26.0566C56.4824 26.8536 55.9145 27.5374 55.1961 28.0329C54.4778 28.5284 53.6368 28.8163 52.7656 28.8652C51.6049 26.7235 50.0479 24.8218 48.1773 23.2614ZM67.9862 67.9862C61.9158 74.054 53.9139 77.807 45.3672 78.5948C36.8204 79.3826 28.2674 77.1555 21.1901 72.2996L22.9544 69.6531L29.7808 70.5073C31.7504 70.752 33.7332 70.8748 35.718 70.875H35.823C40.0566 70.8748 44.2705 70.2996 48.3492 69.1651L53.7785 67.6566C53.79 67.6536 53.8016 67.6507 53.813 67.6474L65.9766 64.2644C66.226 64.195 66.4493 64.0534 66.6185 63.8574C66.7876 63.6614 66.895 63.4197 66.9271 63.1628L68.2396 52.6628C68.2699 52.4209 68.2321 52.1754 68.1307 51.9538C68.0293 51.7322 67.8682 51.5432 67.6654 51.408L63.8562 48.8683C61.4798 47.2836 59.4534 45.2285 57.9023 42.83C56.3512 40.4314 55.3083 37.7404 54.838 34.923C54.6363 33.7102 54.3208 32.5191 53.8956 31.3655C55.0615 31.14 56.1558 30.6366 57.0856 29.8979C58.0154 29.1592 58.7532 28.2071 59.2364 27.1223L62.8868 18.9077C62.9755 18.7079 63.0129 18.4891 62.9956 18.2712C62.9783 18.0532 62.9069 17.8431 62.7877 17.6597C62.6686 17.4764 62.5055 17.3258 62.3134 17.2215C62.1212 17.1172 61.9061 17.0625 61.6875 17.0625H57.3513C53.1112 17.051 49.0382 18.7143 46.0184 21.6907C44.2774 20.6004 42.3748 19.7925 40.3813 19.297L43.1738 13.712C43.289 13.4817 43.3339 13.2226 43.3029 12.967C43.2719 12.7114 43.1664 12.4705 42.9996 12.2744C42.8327 12.0783 42.6118 11.9356 42.3644 11.8641C42.1171 11.7926 41.8541 11.7954 41.6084 11.8722L29.3778 15.6949C27.7846 16.1907 26.2939 16.9698 24.9772 17.9947L14.7561 17.335C15.1633 16.8866 15.5826 16.4463 16.0141 16.0143C22.9151 9.1661 32.2486 5.3315 41.9708 5.35016C51.6931 5.36882 61.0118 9.23922 67.8864 16.1139C74.7611 22.9885 78.6315 32.3072 78.6502 42.0294C78.6689 51.7517 74.8344 61.0852 67.9862 67.9862Z"/>
</mask>
<path d="M42 2.62501C34.2124 2.62521 26.5998 4.93465 20.1248 9.2613C13.6498 13.5879 8.60315 19.7375 5.62307 26.9323C2.64299 34.127 1.8633 42.0439 3.3826 49.6818C4.9019 57.3197 8.65196 64.3356 14.1586 69.8422C17.8067 73.535 22.1491 76.4699 26.9358 78.4782C31.7225 80.4865 36.859 81.5285 42.0499 81.5443C47.2408 81.56 52.3836 80.5492 57.1823 78.57C61.9811 76.5908 66.3412 73.6823 70.0117 70.0118C73.6823 66.3412 76.5908 61.9812 78.57 57.1824C80.5492 52.3836 81.56 47.2408 81.5442 42.0499C81.5285 36.859 80.4865 31.7225 78.4782 26.9358C76.4699 22.1491 73.5349 17.8068 69.8422 14.1586C66.1945 10.4907 61.8555 7.58265 57.0764 5.6029C52.2973 3.62316 47.1729 2.611 42 2.62501ZM5.24997 42C5.22799 33.9948 7.84047 26.2046 12.6845 19.8312L22.5282 20.4666C20.6797 22.8794 19.681 25.8356 19.6875 28.875C19.6875 29.2231 19.8257 29.5569 20.0719 29.8031C20.318 30.0492 20.6519 30.1875 21 30.1875C21.3481 30.1875 21.6819 30.0492 21.928 29.8031C22.1742 29.5569 22.3125 29.2231 22.3125 28.875C22.308 27.2687 22.651 25.6804 23.3181 24.2192C23.9851 22.7579 24.9604 21.4583 26.177 20.4094C26.2381 20.3661 26.2954 20.3177 26.3482 20.2647C27.4729 19.3355 28.7679 18.6345 30.1607 18.2008L39.4467 15.299L37.2646 19.6642C37.2623 19.6688 37.26 19.6732 37.2579 19.6778L32.9524 28.2888C32.8737 28.4431 32.8264 28.6115 32.8131 28.7842C32.7998 28.9569 32.8208 29.1306 32.8749 29.2951C32.9291 29.4596 33.0152 29.6119 33.1284 29.7429C33.2417 29.874 33.3797 29.9814 33.5347 30.0589C33.6896 30.1364 33.8583 30.1824 34.0311 30.1943C34.2039 30.2063 34.3774 30.1839 34.5415 30.1285C34.7057 30.0731 34.8572 29.9858 34.9874 29.8715C35.1176 29.7573 35.2239 29.6184 35.3001 29.4628L39.1751 21.7129C42.4739 22.4082 45.4863 24.0822 47.819 26.5161C50.1516 28.9499 51.6962 32.0307 52.2509 35.356C52.7803 38.5273 53.9542 41.5564 55.7001 44.2562C57.4461 46.9561 59.727 49.2694 62.402 51.0531L65.5356 53.143L64.4322 61.9707L53.4965 65.0121L51.6039 64.3808C50.5759 64.0351 49.642 63.4562 48.8751 62.6893C48.1083 61.9225 47.5294 60.9885 47.1837 59.9606C47.0725 59.6317 46.8355 59.3603 46.5247 59.2058C46.2138 59.0512 45.8544 59.0261 45.5251 59.136C45.1958 59.2458 44.9234 59.4816 44.7676 59.7918C44.6117 60.102 44.5851 60.4613 44.6936 60.7911C45.4702 63.1002 47.0897 65.0311 49.2284 66.1978L47.6475 66.6369C43.7972 67.7076 39.8194 68.2502 35.823 68.25H35.718C33.842 68.2498 31.9678 68.1338 30.1061 67.9025L22.4754 66.9477C22.2335 66.9178 21.9882 66.9556 21.7666 67.057C21.545 67.1584 21.3559 67.3194 21.2205 67.5219L19.0814 70.7306C18.0092 69.8728 16.985 68.9566 16.0135 67.9862C12.5903 64.5816 9.87636 60.5318 8.0288 56.0712C6.18125 51.6107 5.23675 46.828 5.24997 42ZM48.1773 23.2614C50.6746 20.955 53.9518 19.6783 57.3513 19.6875H59.6679L56.8376 26.0566C56.4824 26.8536 55.9145 27.5374 55.1961 28.0329C54.4778 28.5284 53.6368 28.8163 52.7656 28.8652C51.6049 26.7235 50.0479 24.8218 48.1773 23.2614ZM67.9862 67.9862C61.9158 74.054 53.9139 77.807 45.3672 78.5948C36.8204 79.3826 28.2674 77.1555 21.1901 72.2996L22.9544 69.6531L29.7808 70.5073C31.7504 70.752 33.7332 70.8748 35.718 70.875H35.823C40.0566 70.8748 44.2705 70.2996 48.3492 69.1651L53.7785 67.6566C53.79 67.6536 53.8016 67.6507 53.813 67.6474L65.9766 64.2644C66.226 64.195 66.4493 64.0534 66.6185 63.8574C66.7876 63.6614 66.895 63.4197 66.9271 63.1628L68.2396 52.6628C68.2699 52.4209 68.2321 52.1754 68.1307 51.9538C68.0293 51.7322 67.8682 51.5432 67.6654 51.408L63.8562 48.8683C61.4798 47.2836 59.4534 45.2285 57.9023 42.83C56.3512 40.4314 55.3083 37.7404 54.838 34.923C54.6363 33.7102 54.3208 32.5191 53.8956 31.3655C55.0615 31.14 56.1558 30.6366 57.0856 29.8979C58.0154 29.1592 58.7532 28.2071 59.2364 27.1223L62.8868 18.9077C62.9755 18.7079 63.0129 18.4891 62.9956 18.2712C62.9783 18.0532 62.9069 17.8431 62.7877 17.6597C62.6686 17.4764 62.5055 17.3258 62.3134 17.2215C62.1212 17.1172 61.9061 17.0625 61.6875 17.0625H57.3513C53.1112 17.051 49.0382 18.7143 46.0184 21.6907C44.2774 20.6004 42.3748 19.7925 40.3813 19.297L43.1738 13.712C43.289 13.4817 43.3339 13.2226 43.3029 12.967C43.2719 12.7114 43.1664 12.4705 42.9996 12.2744C42.8327 12.0783 42.6118 11.9356 42.3644 11.8641C42.1171 11.7926 41.8541 11.7954 41.6084 11.8722L29.3778 15.6949C27.7846 16.1907 26.2939 16.9698 24.9772 17.9947L14.7561 17.335C15.1633 16.8866 15.5826 16.4463 16.0141 16.0143C22.9151 9.1661 32.2486 5.3315 41.9708 5.35016C51.6931 5.36882 61.0118 9.23922 67.8864 16.1139C74.7611 22.9885 78.6315 32.3072 78.6502 42.0294C78.6689 51.7517 74.8344 61.0852 67.9862 67.9862Z" fill="black"/>
<path d="M42 2.62501C34.2124 2.62521 26.5998 4.93465 20.1248 9.2613C13.6498 13.5879 8.60315 19.7375 5.62307 26.9323C2.64299 34.127 1.8633 42.0439 3.3826 49.6818C4.9019 57.3197 8.65196 64.3356 14.1586 69.8422C17.8067 73.535 22.1491 76.4699 26.9358 78.4782C31.7225 80.4865 36.859 81.5285 42.0499 81.5443C47.2408 81.56 52.3836 80.5492 57.1823 78.57C61.9811 76.5908 66.3412 73.6823 70.0117 70.0118C73.6823 66.3412 76.5908 61.9812 78.57 57.1824C80.5492 52.3836 81.56 47.2408 81.5442 42.0499C81.5285 36.859 80.4865 31.7225 78.4782 26.9358C76.4699 22.1491 73.5349 17.8068 69.8422 14.1586C66.1945 10.4907 61.8555 7.58265 57.0764 5.6029C52.2973 3.62316 47.1729 2.611 42 2.62501ZM5.24997 42C5.22799 33.9948 7.84047 26.2046 12.6845 19.8312L22.5282 20.4666C20.6797 22.8794 19.681 25.8356 19.6875 28.875C19.6875 29.2231 19.8257 29.5569 20.0719 29.8031C20.318 30.0492 20.6519 30.1875 21 30.1875C21.3481 30.1875 21.6819 30.0492 21.928 29.8031C22.1742 29.5569 22.3125 29.2231 22.3125 28.875C22.308 27.2687 22.651 25.6804 23.3181 24.2192C23.9851 22.7579 24.9604 21.4583 26.177 20.4094C26.2381 20.3661 26.2954 20.3177 26.3482 20.2647C27.4729 19.3355 28.7679 18.6345 30.1607 18.2008L39.4467 15.299L37.2646 19.6642C37.2623 19.6688 37.26 19.6732 37.2579 19.6778L32.9524 28.2888C32.8737 28.4431 32.8264 28.6115 32.8131 28.7842C32.7998 28.9569 32.8208 29.1306 32.8749 29.2951C32.9291 29.4596 33.0152 29.6119 33.1284 29.7429C33.2417 29.874 33.3797 29.9814 33.5347 30.0589C33.6896 30.1364 33.8583 30.1824 34.0311 30.1943C34.2039 30.2063 34.3774 30.1839 34.5415 30.1285C34.7057 30.0731 34.8572 29.9858 34.9874 29.8715C35.1176 29.7573 35.2239 29.6184 35.3001 29.4628L39.1751 21.7129C42.4739 22.4082 45.4863 24.0822 47.819 26.5161C50.1516 28.9499 51.6962 32.0307 52.2509 35.356C52.7803 38.5273 53.9542 41.5564 55.7001 44.2562C57.4461 46.9561 59.727 49.2694 62.402 51.0531L65.5356 53.143L64.4322 61.9707L53.4965 65.0121L51.6039 64.3808C50.5759 64.0351 49.642 63.4562 48.8751 62.6893C48.1083 61.9225 47.5294 60.9885 47.1837 59.9606C47.0725 59.6317 46.8355 59.3603 46.5247 59.2058C46.2138 59.0512 45.8544 59.0261 45.5251 59.136C45.1958 59.2458 44.9234 59.4816 44.7676 59.7918C44.6117 60.102 44.5851 60.4613 44.6936 60.7911C45.4702 63.1002 47.0897 65.0311 49.2284 66.1978L47.6475 66.6369C43.7972 67.7076 39.8194 68.2502 35.823 68.25H35.718C33.842 68.2498 31.9678 68.1338 30.1061 67.9025L22.4754 66.9477C22.2335 66.9178 21.9882 66.9556 21.7666 67.057C21.545 67.1584 21.3559 67.3194 21.2205 67.5219L19.0814 70.7306C18.0092 69.8728 16.985 68.9566 16.0135 67.9862C12.5903 64.5816 9.87636 60.5318 8.0288 56.0712C6.18125 51.6107 5.23675 46.828 5.24997 42ZM48.1773 23.2614C50.6746 20.955 53.9518 19.6783 57.3513 19.6875H59.6679L56.8376 26.0566C56.4824 26.8536 55.9145 27.5374 55.1961 28.0329C54.4778 28.5284 53.6368 28.8163 52.7656 28.8652C51.6049 26.7235 50.0479 24.8218 48.1773 23.2614ZM67.9862 67.9862C61.9158 74.054 53.9139 77.807 45.3672 78.5948C36.8204 79.3826 28.2674 77.1555 21.1901 72.2996L22.9544 69.6531L29.7808 70.5073C31.7504 70.752 33.7332 70.8748 35.718 70.875H35.823C40.0566 70.8748 44.2705 70.2996 48.3492 69.1651L53.7785 67.6566C53.79 67.6536 53.8016 67.6507 53.813 67.6474L65.9766 64.2644C66.226 64.195 66.4493 64.0534 66.6185 63.8574C66.7876 63.6614 66.895 63.4197 66.9271 63.1628L68.2396 52.6628C68.2699 52.4209 68.2321 52.1754 68.1307 51.9538C68.0293 51.7322 67.8682 51.5432 67.6654 51.408L63.8562 48.8683C61.4798 47.2836 59.4534 45.2285 57.9023 42.83C56.3512 40.4314 55.3083 37.7404 54.838 34.923C54.6363 33.7102 54.3208 32.5191 53.8956 31.3655C55.0615 31.14 56.1558 30.6366 57.0856 29.8979C58.0154 29.1592 58.7532 28.2071 59.2364 27.1223L62.8868 18.9077C62.9755 18.7079 63.0129 18.4891 62.9956 18.2712C62.9783 18.0532 62.9069 17.8431 62.7877 17.6597C62.6686 17.4764 62.5055 17.3258 62.3134 17.2215C62.1212 17.1172 61.9061 17.0625 61.6875 17.0625H57.3513C53.1112 17.051 49.0382 18.7143 46.0184 21.6907C44.2774 20.6004 42.3748 19.7925 40.3813 19.297L43.1738 13.712C43.289 13.4817 43.3339 13.2226 43.3029 12.967C43.2719 12.7114 43.1664 12.4705 42.9996 12.2744C42.8327 12.0783 42.6118 11.9356 42.3644 11.8641C42.1171 11.7926 41.8541 11.7954 41.6084 11.8722L29.3778 15.6949C27.7846 16.1907 26.2939 16.9698 24.9772 17.9947L14.7561 17.335C15.1633 16.8866 15.5826 16.4463 16.0141 16.0143C22.9151 9.1661 32.2486 5.3315 41.9708 5.35016C51.6931 5.36882 61.0118 9.23922 67.8864 16.1139C74.7611 22.9885 78.6315 32.3072 78.6502 42.0294C78.6689 51.7517 74.8344 61.0852 67.9862 67.9862Z" stroke="black" stroke-width="2" mask="url(#path-1-outside-1)"/>
<path d="M42 44.625C44.1746 44.625 45.9375 42.8621 45.9375 40.6875C45.9375 38.5129 44.1746 36.75 42 36.75C39.8254 36.75 38.0625 38.5129 38.0625 40.6875C38.0625 42.8621 39.8254 44.625 42 44.625Z" fill="#FFC700"/>
</svg>
